# xmcd
#
# Track frame offsets:
#	150
#	23840
#	48724
#	73658
#	90952
#	109434
#	134108
#	150673
#	201678
#
# Disc length: 2971 seconds
#
# Revision: 2
# Processed by: cddbd v1.5.2PL0 Copyright (c) Steve Scherf et al.
# Submitted via: EasyCDDAExtractor 15.3.0.1
#
DISCID=870b9909
DTITLE=Olga Tañon - Fuego En Vivo Vol. 2 - Solo Exitos
DYEAR=2008
DGENRE=Latin
TTITLE0=Medley (Entre La Noche Y El Dia, Una Noche Mas, El Frio De Tu Adios)
TTITLE1=Medley (Que Grande Es Este Amor, Vendras Llorando, No Me Puedes Pedir)
TTITLE2=Medley (Mi Eterno Amor Secreto, ¡Basta Ya!)
TTITLE3=Lo Que Te Toca (Featuring Gloria Trevi)
TTITLE4=Flaca O Gordita
TTITLE5=Medley (Receta Del Amor, Que Bailen Los Niños, Yo Por Ti)
TTITLE6=Cosas Del Amor (Featuring Milly Quezada)
TTITLE7=Medley (Bandolero, Es Mentiroso, Ya Me Canse, Ahora Soy Mala, Serpient
TTITLE7=e Mala, Muchacho Malo)
TTITLE8=Se Nos Rompio El Amor
EXTD=
EXTT0=
EXTT1=
EXTT2=
EXTT3=
EXTT4=
EXTT5=
EXTT6=
EXTT7=
EXTT8=
PLAYORDER=
